<svg enable-background="new 0 0 128 128" viewBox="0 0 128 128" xmlns="http://www.w3.org/2000/svg" xmlns:xlink="http://www.w3.org/1999/xlink"><linearGradient id="a" gradientUnits="userSpaceOnUse" x1="64" x2="64" y1="6.5" y2="120.08"><stop offset=".0059391" stop-color="#ffe2b8"/><stop offset=".9219" stop-color="#ffa726"/></linearGradient><linearGradient id="b" gradientUnits="userSpaceOnUse" x1="89.459" x2="89.459" y1="57.25" y2="113.82"><stop offset=".011" stop-color="#ffaf39"/><stop offset=".927" stop-color="#de8400"/></linearGradient><path d="m69.1 8.17-61.03 29.92v53.56l50.83 29.43 61.03-34.02v-53.56z" fill="url(#a)"/><path d="m38.46 67.02-10-5.19c-1.95-1.01-3.84-.23-4.16 1.85-.39 2.15.99 4.62 3.05 5.77l10.64 5.57c.59.28 1.2.42 1.75.41 1.3-.06 2.18-1 2.24-2.53.13-2.17-1.41-4.71-3.52-5.88z" fill="#593e37"/><path d="m38.99 63.45-10.34-5.55v-9.43l10.15 5.05z" fill="#a17f69"/><path d="m38.31 109.06-9.66-5.6v-11.32l9.66 5.76z" fill="#a17f69"/><path d="m8.07 38.09 50.92 25.29 60.94-30.35-50.83-24.86z" fill="#ffe082"/><path d="m99.15 22.89-9.95-4.96-60.46 30.54 10.06 5.05z" fill="#c99470"/><path d="m58.99 63.38v57.8l60.94-34.12v-53.56z" fill="url(#b)"/><path d="m69.11 11.46 47.83 23.4v50.4l-57.88 32.4-47.99-27.79v-49.96zm-.01-3.34-61.03 29.92v53.56l50.83 29.43.09-.05v.15l60.94-34.12v-53.56l-.47-.23.47-.23-50.83-24.87z" fill="#444" opacity=".2"/></svg>